<mxfile host="Electron" modified="2024-03-25T01:24:39.989Z" agent="Mozilla/5.0 (Windows NT 10.0; Win64; x64) AppleWebKit/537.36 (KHTML, like Gecko) draw.io/24.1.0 Chrome/120.0.6099.109 Electron/28.1.0 Safari/537.36" etag="DpRVN3uZUfLyPQwO9wT7" version="24.1.0" type="device">
  <diagram name="Page-1" id="cxs8DnsVRL69OHa9sEss">
    <mxGraphModel dx="2284" dy="836" grid="1" gridSize="10" guides="1" tooltips="1" connect="1" arrows="1" fold="1" page="1" pageScale="1" pageWidth="850" pageHeight="1100" math="0" shadow="0">
      <root>
        <mxCell id="0" />
        <mxCell id="1" parent="0" />
        <mxCell id="Oc_PI5DmAqNC_Pz5KXL3-1" value="HOMES" style="swimlane;fontStyle=0;childLayout=stackLayout;horizontal=1;startSize=26;horizontalStack=0;resizeParent=1;resizeParentMax=0;resizeLast=0;collapsible=1;marginBottom=0;align=center;fontSize=14;" parent="1" vertex="1">
          <mxGeometry x="40" y="170" width="160" height="296" as="geometry" />
        </mxCell>
        <mxCell id="Oc_PI5DmAqNC_Pz5KXL3-2" value="* _id" style="text;strokeColor=none;fillColor=none;spacingLeft=4;spacingRight=4;overflow=hidden;rotatable=0;points=[[0,0.5],[1,0.5]];portConstraint=eastwest;fontSize=12;whiteSpace=wrap;html=1;align=center;" parent="Oc_PI5DmAqNC_Pz5KXL3-1" vertex="1">
          <mxGeometry y="26" width="160" height="30" as="geometry" />
        </mxCell>
        <mxCell id="Oc_PI5DmAqNC_Pz5KXL3-3" value="floor space" style="text;strokeColor=none;fillColor=none;spacingLeft=4;spacingRight=4;overflow=hidden;rotatable=0;points=[[0,0.5],[1,0.5]];portConstraint=eastwest;fontSize=12;whiteSpace=wrap;html=1;align=center;" parent="Oc_PI5DmAqNC_Pz5KXL3-1" vertex="1">
          <mxGeometry y="56" width="160" height="30" as="geometry" />
        </mxCell>
        <mxCell id="Oc_PI5DmAqNC_Pz5KXL3-4" value="floors" style="text;strokeColor=none;fillColor=none;spacingLeft=4;spacingRight=4;overflow=hidden;rotatable=0;points=[[0,0.5],[1,0.5]];portConstraint=eastwest;fontSize=12;whiteSpace=wrap;html=1;align=center;" parent="Oc_PI5DmAqNC_Pz5KXL3-1" vertex="1">
          <mxGeometry y="86" width="160" height="30" as="geometry" />
        </mxCell>
        <mxCell id="I5Xczvl6N2R8ibGkUNGr-3" value="bedrooms" style="text;strokeColor=none;fillColor=none;spacingLeft=4;spacingRight=4;overflow=hidden;rotatable=0;points=[[0,0.5],[1,0.5]];portConstraint=eastwest;fontSize=12;whiteSpace=wrap;html=1;align=center;" vertex="1" parent="Oc_PI5DmAqNC_Pz5KXL3-1">
          <mxGeometry y="116" width="160" height="30" as="geometry" />
        </mxCell>
        <mxCell id="I5Xczvl6N2R8ibGkUNGr-2" value="bathrooms" style="text;strokeColor=none;fillColor=none;spacingLeft=4;spacingRight=4;overflow=hidden;rotatable=0;points=[[0,0.5],[1,0.5]];portConstraint=eastwest;fontSize=12;whiteSpace=wrap;html=1;align=center;" vertex="1" parent="Oc_PI5DmAqNC_Pz5KXL3-1">
          <mxGeometry y="146" width="160" height="30" as="geometry" />
        </mxCell>
        <mxCell id="I5Xczvl6N2R8ibGkUNGr-1" value="land size" style="text;strokeColor=none;fillColor=none;spacingLeft=4;spacingRight=4;overflow=hidden;rotatable=0;points=[[0,0.5],[1,0.5]];portConstraint=eastwest;fontSize=12;whiteSpace=wrap;html=1;align=center;" vertex="1" parent="Oc_PI5DmAqNC_Pz5KXL3-1">
          <mxGeometry y="176" width="160" height="30" as="geometry" />
        </mxCell>
        <mxCell id="I5Xczvl6N2R8ibGkUNGr-7" value="year constructed" style="text;strokeColor=none;fillColor=none;spacingLeft=4;spacingRight=4;overflow=hidden;rotatable=0;points=[[0,0.5],[1,0.5]];portConstraint=eastwest;fontSize=12;whiteSpace=wrap;html=1;align=center;" vertex="1" parent="Oc_PI5DmAqNC_Pz5KXL3-1">
          <mxGeometry y="206" width="160" height="30" as="geometry" />
        </mxCell>
        <mxCell id="I5Xczvl6N2R8ibGkUNGr-6" value="type" style="text;strokeColor=none;fillColor=none;spacingLeft=4;spacingRight=4;overflow=hidden;rotatable=0;points=[[0,0.5],[1,0.5]];portConstraint=eastwest;fontSize=12;whiteSpace=wrap;html=1;align=center;" vertex="1" parent="Oc_PI5DmAqNC_Pz5KXL3-1">
          <mxGeometry y="236" width="160" height="30" as="geometry" />
        </mxCell>
        <mxCell id="I5Xczvl6N2R8ibGkUNGr-5" value="appliances" style="text;strokeColor=none;fillColor=none;spacingLeft=4;spacingRight=4;overflow=hidden;rotatable=0;points=[[0,0.5],[1,0.5]];portConstraint=eastwest;fontSize=12;whiteSpace=wrap;html=1;align=center;" vertex="1" parent="Oc_PI5DmAqNC_Pz5KXL3-1">
          <mxGeometry y="266" width="160" height="30" as="geometry" />
        </mxCell>
        <mxCell id="Oc_PI5DmAqNC_Pz5KXL3-5" value="LOCATIONS" style="swimlane;fontStyle=0;childLayout=stackLayout;horizontal=1;startSize=26;horizontalStack=0;resizeParent=1;resizeParentMax=0;resizeLast=0;collapsible=1;marginBottom=0;align=center;fontSize=14;" parent="1" vertex="1">
          <mxGeometry x="412.5" y="110" width="185" height="296" as="geometry" />
        </mxCell>
        <mxCell id="I5Xczvl6N2R8ibGkUNGr-21" value="* _id" style="text;strokeColor=none;fillColor=none;spacingLeft=4;spacingRight=4;overflow=hidden;rotatable=0;points=[[0,0.5],[1,0.5]];portConstraint=eastwest;fontSize=12;whiteSpace=wrap;html=1;align=center;" vertex="1" parent="Oc_PI5DmAqNC_Pz5KXL3-5">
          <mxGeometry y="26" width="185" height="30" as="geometry" />
        </mxCell>
        <mxCell id="Oc_PI5DmAqNC_Pz5KXL3-22" value="Street Number" style="text;strokeColor=none;fillColor=none;spacingLeft=4;spacingRight=4;overflow=hidden;rotatable=0;points=[[0,0.5],[1,0.5]];portConstraint=eastwest;fontSize=12;whiteSpace=wrap;html=1;align=center;" parent="Oc_PI5DmAqNC_Pz5KXL3-5" vertex="1">
          <mxGeometry y="56" width="185" height="30" as="geometry" />
        </mxCell>
        <mxCell id="Oc_PI5DmAqNC_Pz5KXL3-21" value="Unit Number" style="text;strokeColor=none;fillColor=none;spacingLeft=4;spacingRight=4;overflow=hidden;rotatable=0;points=[[0,0.5],[1,0.5]];portConstraint=eastwest;fontSize=12;whiteSpace=wrap;html=1;align=center;" parent="Oc_PI5DmAqNC_Pz5KXL3-5" vertex="1">
          <mxGeometry y="86" width="185" height="30" as="geometry" />
        </mxCell>
        <mxCell id="I5Xczvl6N2R8ibGkUNGr-20" value="Street" style="text;strokeColor=none;fillColor=none;spacingLeft=4;spacingRight=4;overflow=hidden;rotatable=0;points=[[0,0.5],[1,0.5]];portConstraint=eastwest;fontSize=12;whiteSpace=wrap;html=1;align=center;" vertex="1" parent="Oc_PI5DmAqNC_Pz5KXL3-5">
          <mxGeometry y="116" width="185" height="30" as="geometry" />
        </mxCell>
        <mxCell id="I5Xczvl6N2R8ibGkUNGr-19" value="City" style="text;strokeColor=none;fillColor=none;spacingLeft=4;spacingRight=4;overflow=hidden;rotatable=0;points=[[0,0.5],[1,0.5]];portConstraint=eastwest;fontSize=12;whiteSpace=wrap;html=1;align=center;" vertex="1" parent="Oc_PI5DmAqNC_Pz5KXL3-5">
          <mxGeometry y="146" width="185" height="30" as="geometry" />
        </mxCell>
        <mxCell id="I5Xczvl6N2R8ibGkUNGr-18" value="Zip" style="text;strokeColor=none;fillColor=none;spacingLeft=4;spacingRight=4;overflow=hidden;rotatable=0;points=[[0,0.5],[1,0.5]];portConstraint=eastwest;fontSize=12;whiteSpace=wrap;html=1;align=center;" vertex="1" parent="Oc_PI5DmAqNC_Pz5KXL3-5">
          <mxGeometry y="176" width="185" height="30" as="geometry" />
        </mxCell>
        <mxCell id="I5Xczvl6N2R8ibGkUNGr-17" value="State" style="text;strokeColor=none;fillColor=none;spacingLeft=4;spacingRight=4;overflow=hidden;rotatable=0;points=[[0,0.5],[1,0.5]];portConstraint=eastwest;fontSize=12;whiteSpace=wrap;html=1;align=center;" vertex="1" parent="Oc_PI5DmAqNC_Pz5KXL3-5">
          <mxGeometry y="206" width="185" height="30" as="geometry" />
        </mxCell>
        <mxCell id="I5Xczvl6N2R8ibGkUNGr-16" value="County" style="text;strokeColor=none;fillColor=none;spacingLeft=4;spacingRight=4;overflow=hidden;rotatable=0;points=[[0,0.5],[1,0.5]];portConstraint=eastwest;fontSize=12;whiteSpace=wrap;html=1;align=center;" vertex="1" parent="Oc_PI5DmAqNC_Pz5KXL3-5">
          <mxGeometry y="236" width="185" height="30" as="geometry" />
        </mxCell>
        <mxCell id="I5Xczvl6N2R8ibGkUNGr-15" value="Country" style="text;strokeColor=none;fillColor=none;spacingLeft=4;spacingRight=4;overflow=hidden;rotatable=0;points=[[0,0.5],[1,0.5]];portConstraint=eastwest;fontSize=12;whiteSpace=wrap;html=1;align=center;" vertex="1" parent="Oc_PI5DmAqNC_Pz5KXL3-5">
          <mxGeometry y="266" width="185" height="30" as="geometry" />
        </mxCell>
        <mxCell id="Oc_PI5DmAqNC_Pz5KXL3-9" value="APPLIANCES" style="swimlane;fontStyle=0;childLayout=stackLayout;horizontal=1;startSize=26;horizontalStack=0;resizeParent=1;resizeParentMax=0;resizeLast=0;collapsible=1;marginBottom=0;align=center;fontSize=14;" parent="1" vertex="1">
          <mxGeometry x="-230" y="30" width="160" height="206" as="geometry" />
        </mxCell>
        <mxCell id="Oc_PI5DmAqNC_Pz5KXL3-10" value="* _id" style="text;strokeColor=none;fillColor=none;spacingLeft=4;spacingRight=4;overflow=hidden;rotatable=0;points=[[0,0.5],[1,0.5]];portConstraint=eastwest;fontSize=12;whiteSpace=wrap;html=1;align=center;" parent="Oc_PI5DmAqNC_Pz5KXL3-9" vertex="1">
          <mxGeometry y="26" width="160" height="30" as="geometry" />
        </mxCell>
        <mxCell id="Oc_PI5DmAqNC_Pz5KXL3-12" value="Name" style="text;strokeColor=none;fillColor=none;spacingLeft=4;spacingRight=4;overflow=hidden;rotatable=0;points=[[0,0.5],[1,0.5]];portConstraint=eastwest;fontSize=12;whiteSpace=wrap;html=1;align=center;" parent="Oc_PI5DmAqNC_Pz5KXL3-9" vertex="1">
          <mxGeometry y="56" width="160" height="30" as="geometry" />
        </mxCell>
        <mxCell id="Oc_PI5DmAqNC_Pz5KXL3-24" value="Model" style="text;strokeColor=none;fillColor=none;spacingLeft=4;spacingRight=4;overflow=hidden;rotatable=0;points=[[0,0.5],[1,0.5]];portConstraint=eastwest;fontSize=12;whiteSpace=wrap;html=1;align=center;" parent="Oc_PI5DmAqNC_Pz5KXL3-9" vertex="1">
          <mxGeometry y="86" width="160" height="30" as="geometry" />
        </mxCell>
        <mxCell id="82KTRS_2qqhLN4Le7ztT-1" value="Year" style="text;strokeColor=none;fillColor=none;spacingLeft=4;spacingRight=4;overflow=hidden;rotatable=0;points=[[0,0.5],[1,0.5]];portConstraint=eastwest;fontSize=12;whiteSpace=wrap;html=1;align=center;" parent="Oc_PI5DmAqNC_Pz5KXL3-9" vertex="1">
          <mxGeometry y="116" width="160" height="30" as="geometry" />
        </mxCell>
        <mxCell id="I5Xczvl6N2R8ibGkUNGr-24" value="Make" style="text;strokeColor=none;fillColor=none;spacingLeft=4;spacingRight=4;overflow=hidden;rotatable=0;points=[[0,0.5],[1,0.5]];portConstraint=eastwest;fontSize=12;whiteSpace=wrap;html=1;align=center;" vertex="1" parent="Oc_PI5DmAqNC_Pz5KXL3-9">
          <mxGeometry y="146" width="160" height="30" as="geometry" />
        </mxCell>
        <mxCell id="I5Xczvl6N2R8ibGkUNGr-23" value="Price" style="text;strokeColor=none;fillColor=none;spacingLeft=4;spacingRight=4;overflow=hidden;rotatable=0;points=[[0,0.5],[1,0.5]];portConstraint=eastwest;fontSize=12;whiteSpace=wrap;html=1;align=center;" vertex="1" parent="Oc_PI5DmAqNC_Pz5KXL3-9">
          <mxGeometry y="176" width="160" height="30" as="geometry" />
        </mxCell>
        <mxCell id="82KTRS_2qqhLN4Le7ztT-5" value="+" style="text;strokeColor=none;align=center;fillColor=none;html=1;verticalAlign=middle;whiteSpace=wrap;rounded=0;" parent="1" vertex="1">
          <mxGeometry x="415" y="130" width="20" height="10" as="geometry" />
        </mxCell>
        <mxCell id="82KTRS_2qqhLN4Le7ztT-8" value="" style="edgeStyle=entityRelationEdgeStyle;fontSize=12;html=1;endArrow=none;rounded=0;exitX=1;exitY=0.5;exitDx=0;exitDy=0;entryX=0;entryY=0.5;entryDx=0;entryDy=0;endFill=0;startArrow=block;startFill=1;" parent="1" source="Oc_PI5DmAqNC_Pz5KXL3-3" edge="1" target="Oc_PI5DmAqNC_Pz5KXL3-22">
          <mxGeometry width="100" height="100" relative="1" as="geometry">
            <mxPoint x="390" y="420" as="sourcePoint" />
            <mxPoint x="305" y="291" as="targetPoint" />
          </mxGeometry>
        </mxCell>
        <mxCell id="82KTRS_2qqhLN4Le7ztT-15" value="AGENTS" style="swimlane;fontStyle=0;childLayout=stackLayout;horizontal=1;startSize=26;horizontalStack=0;resizeParent=1;resizeParentMax=0;resizeLast=0;collapsible=1;marginBottom=0;align=center;fontSize=14;" parent="1" vertex="1">
          <mxGeometry x="480" y="531" width="160" height="208" as="geometry" />
        </mxCell>
        <mxCell id="82KTRS_2qqhLN4Le7ztT-16" value="* _id" style="text;strokeColor=none;fillColor=none;spacingLeft=4;spacingRight=4;overflow=hidden;rotatable=0;points=[[0,0.5],[1,0.5]];portConstraint=eastwest;fontSize=12;whiteSpace=wrap;html=1;align=center;" parent="82KTRS_2qqhLN4Le7ztT-15" vertex="1">
          <mxGeometry y="26" width="160" height="30" as="geometry" />
        </mxCell>
        <mxCell id="82KTRS_2qqhLN4Le7ztT-17" value="First Name" style="text;strokeColor=none;fillColor=none;spacingLeft=4;spacingRight=4;overflow=hidden;rotatable=0;points=[[0,0.5],[1,0.5]];portConstraint=eastwest;fontSize=12;whiteSpace=wrap;html=1;align=center;" parent="82KTRS_2qqhLN4Le7ztT-15" vertex="1">
          <mxGeometry y="56" width="160" height="30" as="geometry" />
        </mxCell>
        <mxCell id="82KTRS_2qqhLN4Le7ztT-18" value="Last Name" style="text;strokeColor=none;fillColor=none;spacingLeft=4;spacingRight=4;overflow=hidden;rotatable=0;points=[[0,0.5],[1,0.5]];portConstraint=eastwest;fontSize=12;whiteSpace=wrap;html=1;align=center;" parent="82KTRS_2qqhLN4Le7ztT-15" vertex="1">
          <mxGeometry y="86" width="160" height="34" as="geometry" />
        </mxCell>
        <mxCell id="82KTRS_2qqhLN4Le7ztT-34" value="Companies" style="text;strokeColor=none;fillColor=none;spacingLeft=4;spacingRight=4;overflow=hidden;rotatable=0;points=[[0,0.5],[1,0.5]];portConstraint=eastwest;fontSize=12;whiteSpace=wrap;html=1;align=center;" parent="82KTRS_2qqhLN4Le7ztT-15" vertex="1">
          <mxGeometry y="120" width="160" height="44" as="geometry" />
        </mxCell>
        <mxCell id="I5Xczvl6N2R8ibGkUNGr-34" value="Sales" style="text;strokeColor=none;fillColor=none;spacingLeft=4;spacingRight=4;overflow=hidden;rotatable=0;points=[[0,0.5],[1,0.5]];portConstraint=eastwest;fontSize=12;whiteSpace=wrap;html=1;align=center;" vertex="1" parent="82KTRS_2qqhLN4Le7ztT-15">
          <mxGeometry y="164" width="160" height="44" as="geometry" />
        </mxCell>
        <mxCell id="82KTRS_2qqhLN4Le7ztT-19" value="OWNERS" style="swimlane;fontStyle=0;childLayout=stackLayout;horizontal=1;startSize=26;horizontalStack=0;resizeParent=1;resizeParentMax=0;resizeLast=0;collapsible=1;marginBottom=0;align=center;fontSize=14;" parent="1" vertex="1">
          <mxGeometry x="-230" y="265" width="185" height="266" as="geometry" />
        </mxCell>
        <mxCell id="82KTRS_2qqhLN4Le7ztT-22" value="* _id" style="text;strokeColor=none;fillColor=none;spacingLeft=4;spacingRight=4;overflow=hidden;rotatable=0;points=[[0,0.5],[1,0.5]];portConstraint=eastwest;fontSize=12;whiteSpace=wrap;html=1;align=center;" parent="82KTRS_2qqhLN4Le7ztT-19" vertex="1">
          <mxGeometry y="26" width="185" height="30" as="geometry" />
        </mxCell>
        <mxCell id="82KTRS_2qqhLN4Le7ztT-23" value="First Name" style="text;strokeColor=none;fillColor=none;spacingLeft=4;spacingRight=4;overflow=hidden;rotatable=0;points=[[0,0.5],[1,0.5]];portConstraint=eastwest;fontSize=12;whiteSpace=wrap;html=1;align=center;" parent="82KTRS_2qqhLN4Le7ztT-19" vertex="1">
          <mxGeometry y="56" width="185" height="30" as="geometry" />
        </mxCell>
        <mxCell id="I5Xczvl6N2R8ibGkUNGr-8" value="Last Name" style="text;strokeColor=none;fillColor=none;spacingLeft=4;spacingRight=4;overflow=hidden;rotatable=0;points=[[0,0.5],[1,0.5]];portConstraint=eastwest;fontSize=12;whiteSpace=wrap;html=1;align=center;" vertex="1" parent="82KTRS_2qqhLN4Le7ztT-19">
          <mxGeometry y="86" width="185" height="30" as="geometry" />
        </mxCell>
        <mxCell id="I5Xczvl6N2R8ibGkUNGr-14" value="ssn" style="text;strokeColor=none;fillColor=none;spacingLeft=4;spacingRight=4;overflow=hidden;rotatable=0;points=[[0,0.5],[1,0.5]];portConstraint=eastwest;fontSize=12;whiteSpace=wrap;html=1;align=center;" vertex="1" parent="82KTRS_2qqhLN4Le7ztT-19">
          <mxGeometry y="116" width="185" height="30" as="geometry" />
        </mxCell>
        <mxCell id="I5Xczvl6N2R8ibGkUNGr-13" value="Number Dependents" style="text;strokeColor=none;fillColor=none;spacingLeft=4;spacingRight=4;overflow=hidden;rotatable=0;points=[[0,0.5],[1,0.5]];portConstraint=eastwest;fontSize=12;whiteSpace=wrap;html=1;align=center;" vertex="1" parent="82KTRS_2qqhLN4Le7ztT-19">
          <mxGeometry y="146" width="185" height="30" as="geometry" />
        </mxCell>
        <mxCell id="I5Xczvl6N2R8ibGkUNGr-12" value="Income" style="text;strokeColor=none;fillColor=none;spacingLeft=4;spacingRight=4;overflow=hidden;rotatable=0;points=[[0,0.5],[1,0.5]];portConstraint=eastwest;fontSize=12;whiteSpace=wrap;html=1;align=center;" vertex="1" parent="82KTRS_2qqhLN4Le7ztT-19">
          <mxGeometry y="176" width="185" height="30" as="geometry" />
        </mxCell>
        <mxCell id="I5Xczvl6N2R8ibGkUNGr-11" value="Age" style="text;strokeColor=none;fillColor=none;spacingLeft=4;spacingRight=4;overflow=hidden;rotatable=0;points=[[0,0.5],[1,0.5]];portConstraint=eastwest;fontSize=12;whiteSpace=wrap;html=1;align=center;" vertex="1" parent="82KTRS_2qqhLN4Le7ztT-19">
          <mxGeometry y="206" width="185" height="30" as="geometry" />
        </mxCell>
        <mxCell id="I5Xczvl6N2R8ibGkUNGr-10" value="Profession" style="text;strokeColor=none;fillColor=none;spacingLeft=4;spacingRight=4;overflow=hidden;rotatable=0;points=[[0,0.5],[1,0.5]];portConstraint=eastwest;fontSize=12;whiteSpace=wrap;html=1;align=center;" vertex="1" parent="82KTRS_2qqhLN4Le7ztT-19">
          <mxGeometry y="236" width="185" height="30" as="geometry" />
        </mxCell>
        <mxCell id="82KTRS_2qqhLN4Le7ztT-24" value="TRANSACTIONS" style="swimlane;fontStyle=0;childLayout=stackLayout;horizontal=1;startSize=26;horizontalStack=0;resizeParent=1;resizeParentMax=0;resizeLast=0;collapsible=1;marginBottom=0;align=center;fontSize=14;" parent="1" vertex="1">
          <mxGeometry x="220" y="531" width="160" height="116" as="geometry" />
        </mxCell>
        <mxCell id="82KTRS_2qqhLN4Le7ztT-25" value="* _id" style="text;strokeColor=none;fillColor=none;spacingLeft=4;spacingRight=4;overflow=hidden;rotatable=0;points=[[0,0.5],[1,0.5]];portConstraint=eastwest;fontSize=12;whiteSpace=wrap;html=1;align=center;" parent="82KTRS_2qqhLN4Le7ztT-24" vertex="1">
          <mxGeometry y="26" width="160" height="30" as="geometry" />
        </mxCell>
        <mxCell id="82KTRS_2qqhLN4Le7ztT-26" value="Date" style="text;strokeColor=none;fillColor=none;spacingLeft=4;spacingRight=4;overflow=hidden;rotatable=0;points=[[0,0.5],[1,0.5]];portConstraint=eastwest;fontSize=12;whiteSpace=wrap;html=1;align=center;" parent="82KTRS_2qqhLN4Le7ztT-24" vertex="1">
          <mxGeometry y="56" width="160" height="30" as="geometry" />
        </mxCell>
        <mxCell id="82KTRS_2qqhLN4Le7ztT-27" value="Price" style="text;strokeColor=none;fillColor=none;spacingLeft=4;spacingRight=4;overflow=hidden;rotatable=0;points=[[0,0.5],[1,0.5]];portConstraint=eastwest;fontSize=12;whiteSpace=wrap;html=1;align=center;" parent="82KTRS_2qqhLN4Le7ztT-24" vertex="1">
          <mxGeometry y="86" width="160" height="30" as="geometry" />
        </mxCell>
        <mxCell id="82KTRS_2qqhLN4Le7ztT-42" value="COMPANIES" style="swimlane;fontStyle=0;childLayout=stackLayout;horizontal=1;startSize=26;horizontalStack=0;resizeParent=1;resizeParentMax=0;resizeLast=0;collapsible=1;marginBottom=0;align=center;fontSize=14;" parent="1" vertex="1">
          <mxGeometry x="-217.5" y="600" width="160" height="324" as="geometry" />
        </mxCell>
        <mxCell id="82KTRS_2qqhLN4Le7ztT-43" value="* _id" style="text;strokeColor=none;fillColor=none;spacingLeft=4;spacingRight=4;overflow=hidden;rotatable=0;points=[[0,0.5],[1,0.5]];portConstraint=eastwest;fontSize=12;whiteSpace=wrap;html=1;align=center;" parent="82KTRS_2qqhLN4Le7ztT-42" vertex="1">
          <mxGeometry y="26" width="160" height="30" as="geometry" />
        </mxCell>
        <mxCell id="82KTRS_2qqhLN4Le7ztT-44" value="Name" style="text;strokeColor=none;fillColor=none;spacingLeft=4;spacingRight=4;overflow=hidden;rotatable=0;points=[[0,0.5],[1,0.5]];portConstraint=eastwest;fontSize=12;whiteSpace=wrap;html=1;align=center;" parent="82KTRS_2qqhLN4Le7ztT-42" vertex="1">
          <mxGeometry y="56" width="160" height="30" as="geometry" />
        </mxCell>
        <mxCell id="82KTRS_2qqhLN4Le7ztT-46" value="Commision" style="text;strokeColor=none;fillColor=none;spacingLeft=4;spacingRight=4;overflow=hidden;rotatable=0;points=[[0,0.5],[1,0.5]];portConstraint=eastwest;fontSize=12;whiteSpace=wrap;html=1;align=center;" parent="82KTRS_2qqhLN4Le7ztT-42" vertex="1">
          <mxGeometry y="86" width="160" height="34" as="geometry" />
        </mxCell>
        <mxCell id="I5Xczvl6N2R8ibGkUNGr-26" value="Street Number" style="text;strokeColor=none;fillColor=none;spacingLeft=4;spacingRight=4;overflow=hidden;rotatable=0;points=[[0,0.5],[1,0.5]];portConstraint=eastwest;fontSize=12;whiteSpace=wrap;html=1;align=center;" vertex="1" parent="82KTRS_2qqhLN4Le7ztT-42">
          <mxGeometry y="120" width="160" height="34" as="geometry" />
        </mxCell>
        <mxCell id="I5Xczvl6N2R8ibGkUNGr-27" value="Unit Number" style="text;strokeColor=none;fillColor=none;spacingLeft=4;spacingRight=4;overflow=hidden;rotatable=0;points=[[0,0.5],[1,0.5]];portConstraint=eastwest;fontSize=12;whiteSpace=wrap;html=1;align=center;" vertex="1" parent="82KTRS_2qqhLN4Le7ztT-42">
          <mxGeometry y="154" width="160" height="34" as="geometry" />
        </mxCell>
        <mxCell id="I5Xczvl6N2R8ibGkUNGr-28" value="Street" style="text;strokeColor=none;fillColor=none;spacingLeft=4;spacingRight=4;overflow=hidden;rotatable=0;points=[[0,0.5],[1,0.5]];portConstraint=eastwest;fontSize=12;whiteSpace=wrap;html=1;align=center;" vertex="1" parent="82KTRS_2qqhLN4Le7ztT-42">
          <mxGeometry y="188" width="160" height="34" as="geometry" />
        </mxCell>
        <mxCell id="I5Xczvl6N2R8ibGkUNGr-29" value="City" style="text;strokeColor=none;fillColor=none;spacingLeft=4;spacingRight=4;overflow=hidden;rotatable=0;points=[[0,0.5],[1,0.5]];portConstraint=eastwest;fontSize=12;whiteSpace=wrap;html=1;align=center;" vertex="1" parent="82KTRS_2qqhLN4Le7ztT-42">
          <mxGeometry y="222" width="160" height="34" as="geometry" />
        </mxCell>
        <mxCell id="I5Xczvl6N2R8ibGkUNGr-32" value="Zip" style="text;strokeColor=none;fillColor=none;spacingLeft=4;spacingRight=4;overflow=hidden;rotatable=0;points=[[0,0.5],[1,0.5]];portConstraint=eastwest;fontSize=12;whiteSpace=wrap;html=1;align=center;" vertex="1" parent="82KTRS_2qqhLN4Le7ztT-42">
          <mxGeometry y="256" width="160" height="34" as="geometry" />
        </mxCell>
        <mxCell id="I5Xczvl6N2R8ibGkUNGr-31" value="State" style="text;strokeColor=none;fillColor=none;spacingLeft=4;spacingRight=4;overflow=hidden;rotatable=0;points=[[0,0.5],[1,0.5]];portConstraint=eastwest;fontSize=12;whiteSpace=wrap;html=1;align=center;" vertex="1" parent="82KTRS_2qqhLN4Le7ztT-42">
          <mxGeometry y="290" width="160" height="34" as="geometry" />
        </mxCell>
        <mxCell id="I5Xczvl6N2R8ibGkUNGr-9" value="" style="edgeStyle=entityRelationEdgeStyle;fontSize=12;html=1;endArrow=ERmany;rounded=0;exitX=1;exitY=0.5;exitDx=0;exitDy=0;entryX=0;entryY=0.5;entryDx=0;entryDy=0;endFill=0;" edge="1" parent="1" source="82KTRS_2qqhLN4Le7ztT-23" target="Oc_PI5DmAqNC_Pz5KXL3-3">
          <mxGeometry width="100" height="100" relative="1" as="geometry">
            <mxPoint x="220" y="346" as="sourcePoint" />
            <mxPoint x="315" y="301" as="targetPoint" />
          </mxGeometry>
        </mxCell>
        <mxCell id="I5Xczvl6N2R8ibGkUNGr-25" value="" style="edgeStyle=entityRelationEdgeStyle;fontSize=12;html=1;endArrow=ERmany;rounded=0;exitX=1;exitY=0.5;exitDx=0;exitDy=0;entryX=0;entryY=0.5;entryDx=0;entryDy=0;endFill=0;" edge="1" parent="1" source="Oc_PI5DmAqNC_Pz5KXL3-24" target="Oc_PI5DmAqNC_Pz5KXL3-2">
          <mxGeometry width="100" height="100" relative="1" as="geometry">
            <mxPoint x="-35" y="346" as="sourcePoint" />
            <mxPoint x="60" y="316" as="targetPoint" />
          </mxGeometry>
        </mxCell>
        <mxCell id="I5Xczvl6N2R8ibGkUNGr-35" value="" style="edgeStyle=entityRelationEdgeStyle;fontSize=12;html=1;endArrow=ERmany;rounded=0;exitX=1;exitY=0.5;exitDx=0;exitDy=0;entryX=0;entryY=0.5;entryDx=0;entryDy=0;endFill=0;" edge="1" parent="1" source="I5Xczvl6N2R8ibGkUNGr-11" target="82KTRS_2qqhLN4Le7ztT-26">
          <mxGeometry width="100" height="100" relative="1" as="geometry">
            <mxPoint x="-55" y="439" as="sourcePoint" />
            <mxPoint x="200" y="661" as="targetPoint" />
            <Array as="points">
              <mxPoint x="50" y="583" />
            </Array>
          </mxGeometry>
        </mxCell>
        <mxCell id="I5Xczvl6N2R8ibGkUNGr-36" value="" style="edgeStyle=entityRelationEdgeStyle;fontSize=12;html=1;endArrow=ERmany;rounded=0;exitX=-0.008;exitY=0.338;exitDx=0;exitDy=0;entryX=1;entryY=0.5;entryDx=0;entryDy=0;endFill=0;exitPerimeter=0;" edge="1" parent="1" source="82KTRS_2qqhLN4Le7ztT-16" target="82KTRS_2qqhLN4Le7ztT-26">
          <mxGeometry width="100" height="100" relative="1" as="geometry">
            <mxPoint x="-35" y="406" as="sourcePoint" />
            <mxPoint x="130" y="591" as="targetPoint" />
          </mxGeometry>
        </mxCell>
        <mxCell id="I5Xczvl6N2R8ibGkUNGr-37" value="" style="edgeStyle=entityRelationEdgeStyle;fontSize=12;html=1;endArrow=ERmany;rounded=0;exitX=0;exitY=0.5;exitDx=0;exitDy=0;entryX=1;entryY=0.5;entryDx=0;entryDy=0;endFill=0;" edge="1" parent="1" source="I5Xczvl6N2R8ibGkUNGr-16" target="82KTRS_2qqhLN4Le7ztT-25">
          <mxGeometry width="100" height="100" relative="1" as="geometry">
            <mxPoint x="446" y="577" as="sourcePoint" />
            <mxPoint x="290" y="621" as="targetPoint" />
          </mxGeometry>
        </mxCell>
        <mxCell id="I5Xczvl6N2R8ibGkUNGr-40" value="" style="edgeStyle=entityRelationEdgeStyle;fontSize=12;html=1;endArrow=ERmany;rounded=0;exitX=1;exitY=0.5;exitDx=0;exitDy=0;entryX=0;entryY=0.5;entryDx=0;entryDy=0;" edge="1" parent="1" source="I5Xczvl6N2R8ibGkUNGr-5" target="82KTRS_2qqhLN4Le7ztT-25">
          <mxGeometry width="100" height="100" relative="1" as="geometry">
            <mxPoint x="190" y="510" as="sourcePoint" />
            <mxPoint x="290" y="410" as="targetPoint" />
          </mxGeometry>
        </mxCell>
        <mxCell id="I5Xczvl6N2R8ibGkUNGr-41" value="" style="edgeStyle=entityRelationEdgeStyle;fontSize=12;html=1;endArrow=ERmany;rounded=0;exitX=1;exitY=0.5;exitDx=0;exitDy=0;entryX=0;entryY=0.5;entryDx=0;entryDy=0;endFill=0;" edge="1" parent="1" source="82KTRS_2qqhLN4Le7ztT-43" target="82KTRS_2qqhLN4Le7ztT-27">
          <mxGeometry width="100" height="100" relative="1" as="geometry">
            <mxPoint x="-35" y="496" as="sourcePoint" />
            <mxPoint x="230" y="612" as="targetPoint" />
            <Array as="points">
              <mxPoint x="60" y="593" />
            </Array>
          </mxGeometry>
        </mxCell>
      </root>
    </mxGraphModel>
  </diagram>
</mxfile>
